<svg xmlns="http://www.w3.org/2000/svg" viewBox="0 0 266 82" width="266" height="82"><path fill="#4769AF" d="M33.8 36H2.2C1 36 0 35 0 33.8V2.2C0 1 1 0 2.2 0h31.5C35 0 36 1 36 2.2v31.5c0 1.3-1 2.3-2.2 2.3z"/><path fill="#1B6EB2" d="M79.8 36H48.2C47 36 46 35 46 33.8V2.2C46 1 47 0 48.2 0h31.5C81 0 82 1 82 2.2v31.5c0 1.3-1 2.3-2.2 2.3z"/><path fill="#5D80A3" d="M125.8 36H94.2C93 36 92 35 92 33.8V2.2C92 1 93 0 94.2 0h31.5c1.2 0 2.2 1 2.2 2.2v31.5c.1 1.3-.9 2.3-2.1 2.3z"/><path fill="#ED7222" d="M171.8 36h-31.5c-1.2 0-2.2-1-2.2-2.2V2.2c0-1.2 1-2.2 2.2-2.2h31.5c1.2 0 2.2 1 2.2 2.2v31.5c0 1.3-1 2.3-2.2 2.3z"/><path fill="#1B75AB" d="M217.8 36h-31.5c-1.2 0-2.2-1-2.2-2.2V2.2c0-1.2 1-2.2 2.2-2.2h31.5c1.2 0 2.2 1 2.2 2.2v31.5c0 1.3-1 2.3-2.2 2.3z"/><path fill="#E04927" d="M263.8 36h-31.5c-1.2 0-2.2-1-2.2-2.2V2.2c0-1.2 1-2.2 2.2-2.2h31.5c1.2 0 2.2 1 2.2 2.2v31.5c0 1.3-1 2.3-2.2 2.3z"/><path fill="#fff" d="M12.5 13.8h2.2v-2c0-1 0-2.4.6-3.2.6-1 1.6-1.5 3.3-1.5 2.7 0 3.8.3 3.8.3l-.5 3.2s-.8-.3-1.6-.3-1.6.3-1.6 1.1v2.5H22l-.2 3.2h-3.2v10.8h-4V17.1h-2.2v-3.3zM63.8 12.7c1.3 0 2.7.6 3.6 1.5 0-.4.3-.8.7-.8h.1c.6 0 .8.6.8.8v7.1c0 .5.5.7.8.4 1.1-1.1 2.5-6.1-.7-8.9-3-2.6-7-2.2-9.2-.7-2.3 1.5-3.7 5.1-2.4 8.4 1.5 3.6 6 4.6 8.6 3.6 1.3-.5 2 1.2.5 1.9-2.1.9-7.9.8-10.6-3.9-1.9-3.2-1.8-8.8 3.1-11.6 3.7-2.2 8.7-1.6 11.5 1.4 3.1 3.2 2.9 9.3-.1 11.6-1.3 1-3.4 0-3.4-1.5v-.5c-.9.9-2.2 1.4-3.6 1.4-2.7 0-5.2-2.4-5.2-5.2.5-2.6 2.9-5 5.5-5zm3.6 5c-.1-2-1.5-3.2-3.4-3.2h-.1c-2.1 0-3.2 1.6-3.2 3.5 0 2.1 1.3 3.4 3.2 3.4 2.1 0 3.4-1.4 3.4-3.2l.1-.5zM248.6 18.2c0-1.1 2.6-1.5 2.6-4.3 0-1.6-.1-2.7-1.4-3.3 0-.4 2.3-.1 2.3-.9H247s-5.2.1-5.2 4.4c0 4.3 4.4 3.8 4.4 3.8V19c0 .4.6.3.7 1.2-.3 0-6.2-.2-6.2 3.8 0 3.9 5.3 3.7 5.3 3.7s6 .3 6-4.6c0-2.7-3.4-3.6-3.4-4.9zm-4.5-3.7c-.5-1.8.1-3.4 1.4-3.7 1.2-.3 2.7.8 3.1 2.6.5 1.8-.1 3.4-1.4 3.8-1.2.2-2.5-.9-3.1-2.7zm2.6 12.2c-2.1.1-3.8-.9-3.9-2.5-.1-1.5 1.5-2.9 3.6-3 2.1-.1 3.8.9 3.9 2.5.1 1.4-1.4 2.8-3.6 3zm14.8-13.3v1H258v3.5h-1v-3.5h-3.5v-1h3.5V9.9h1v3.5h3.5z"/><g fill="#fff"><path d="M156.363 9.587c1.25 0 2.262 1.013 2.262 2.263s-1.012 2.262-2.263 2.262S154.1 13.1 154.1 11.85c0-1.238 1.013-2.263 2.263-2.263zm0 7.738c3.012 0 5.462-2.45 5.462-5.463s-2.45-5.463-5.462-5.463-5.463 2.45-5.463 5.462 2.45 5.463 5.463 5.463M158.588 21.8c1.112-.263 2.187-.7 3.175-1.313.75-.475.975-1.462.5-2.2-.475-.75-1.463-.975-2.2-.5-2.238 1.4-5.125 1.4-7.363 0-.75-.475-1.737-.25-2.2.5-.475.75-.25 1.738.5 2.2.988.613 2.063 1.063 3.175 1.313l-3.05 3.05c-.637.637-.637 1.637 0 2.262.313.313.725.463 1.138.463s.825-.15 1.137-.463l3-3 3 3c.637.638 1.637.638 2.263 0 .637-.637.637-1.637 0-2.262l-3.076-3.05"/></g><path fill="#fff" d="M196.3 11.9c1.3 0 2.2-.9 2.2-2s-.8-2-2.2-2-2.2.8-2.2 2c0 1.1.9 2 2.2 2zM198.2 24.5V13.4h-3.8v11.2h3.8zM200.1 24.5h3.7v-6.2c0-.4 0-.6.1-.9.3-.6.9-1.3 1.9-1.3 1.3 0 1.9 1 1.9 2.5v6h3.7V18c0-3.4-1.9-5.1-4.2-5.1-2 0-2.9 1-3.4 1.9v-1.4H200c.2 1.1.1 11.1.1 11.1zM116.5 17.6c-.3-.3-.6-.4-1-.7-.3-.1-1.2-.3-1.3-.4 1.4-.8 2.2-1.5 2.2-3.6 0-2.5-2-3.6-4.4-3.6h-7.2v16.1h7c2.9 0 5.9-1.5 5.9-4.7-.2-1.5-.4-2.2-1.2-3.1zm-7.8-4v-1.1c1.5 0 3.6-.3 3.6 1.5 0 2.1-1.8 1.8-3.6 1.8v-2.2zm0 9v-4.1c2.1 0 4.6-.4 4.6 2.1 0 2.3-2.6 2-4.6 2zM33.8 82H2.2C1 82 0 81 0 79.8V48.2C0 47 1 46 2.2 46h31.5c1.2 0 2.2 1 2.2 2.2v31.5C36 81 35 82 33.8 82zM79.8 82H48.2C47 82 46 81 46 79.8V48.2c0-1.2 1-2.2 2.2-2.2h31.5c1.2 0 2.2 1 2.2 2.2v31.5C82 81 81 82 79.8 82zM125.8 82H94.2C93 82 92 81 92 79.8V48.2c0-1.2 1-2.2 2.2-2.2h31.5c1.2 0 2.2 1 2.2 2.2v31.5c.1 1.3-.9 2.3-2.1 2.3zM171.8 82h-31.5c-1.2 0-2.2-1-2.2-2.2V48.2c0-1.2 1-2.2 2.2-2.2h31.5c1.2 0 2.2 1 2.2 2.2v31.5c0 1.3-1 2.3-2.2 2.3zM217.8 82h-31.5c-1.2 0-2.2-1-2.2-2.2V48.2c0-1.2 1-2.2 2.2-2.2h31.5c1.2 0 2.2 1 2.2 2.2v31.5c0 1.3-1 2.3-2.2 2.3zM263.8 82h-31.5c-1.2 0-2.2-1-2.2-2.2V48.2c0-1.2 1-2.2 2.2-2.2h31.5c1.2 0 2.2 1 2.2 2.2v31.5c0 1.3-1 2.3-2.2 2.3z"/><path d="M12.5 59.8h2.2v-2c0-1 0-2.4.6-3.2.6-1 1.6-1.5 3.3-1.5 2.7 0 3.8.3 3.8.3l-.5 3.2s-.8-.3-1.6-.3-1.6.3-1.6 1.1v2.5H22l-.2 3.2h-3.2v10.8h-4V63.1h-2.2v-3.3zM63.8 58.7c1.3 0 2.7.6 3.6 1.5 0-.4.3-.8.7-.8h.1c.6 0 .8.6.8.8v7.1c0 .5.5.7.8.4 1.1-1.1 2.5-6.1-.7-8.9-3-2.6-7-2.2-9.2-.7-2.3 1.5-3.7 5.1-2.4 8.4 1.5 3.6 6 4.6 8.6 3.6 1.3-.5 2 1.2.5 1.9-2.1.9-7.9.8-10.6-3.9-1.9-3.2-1.8-8.8 3.1-11.6 3.7-2.2 8.7-1.6 11.5 1.4 3.1 3.2 2.9 9.3-.1 11.6-1.3 1-3.4 0-3.4-1.5v-.5c-.9.9-2.2 1.4-3.6 1.4-2.7 0-5.2-2.4-5.2-5.2.5-2.6 2.9-5 5.5-5zm3.6 5c-.1-2-1.5-3.2-3.4-3.2h-.1c-2.1 0-3.2 1.6-3.2 3.5 0 2.1 1.3 3.4 3.2 3.4 2.1 0 3.4-1.4 3.4-3.2l.1-.5zM248.6 64.2c0-1.1 2.6-1.5 2.6-4.3 0-1.6-.1-2.7-1.4-3.3 0-.4 2.3-.1 2.3-.9H247s-5.2.1-5.2 4.4c0 4.3 4.4 3.8 4.4 3.8V65c0 .4.6.3.7 1.2-.3 0-6.2-.2-6.2 3.8 0 3.9 5.3 3.7 5.3 3.7s6 .3 6-4.6c0-2.7-3.4-3.6-3.4-4.9zm-4.5-3.7c-.5-1.8.1-3.4 1.4-3.7 1.2-.3 2.7.8 3.1 2.6.5 1.8-.1 3.4-1.4 3.8-1.2.2-2.5-.9-3.1-2.7zm2.6 12.2c-2.1.1-3.8-.9-3.9-2.5-.1-1.5 1.5-2.9 3.6-3 2.1-.1 3.8.9 3.9 2.5.1 1.4-1.4 2.8-3.6 3zm14.8-13.3v1H258v3.5h-1v-3.5h-3.5v-1h3.5v-3.5h1v3.5h3.5zM156.363 55.587c1.25 0 2.262 1.012 2.262 2.263 0 1.25-1.012 2.262-2.263 2.262S154.1 59.1 154.1 57.85c0-1.238 1.013-2.263 2.263-2.263zm0 7.738c3.012 0 5.462-2.45 5.462-5.463 0-3.012-2.45-5.462-5.462-5.462s-5.463 2.45-5.463 5.462c0 3.013 2.45 5.463 5.463 5.463M158.588 67.8c1.112-.263 2.187-.7 3.175-1.313.75-.475.975-1.45.5-2.2-.475-.75-1.463-.975-2.2-.5-2.238 1.4-5.125 1.4-7.363 0-.75-.475-1.737-.25-2.2.5-.475.75-.25 1.738.5 2.2.988.613 2.063 1.063 3.175 1.313l-3.05 3.05c-.637.637-.637 1.637 0 2.262.313.313.725.463 1.138.463s.825-.15 1.137-.463l3-3 3 3c.637.638 1.637.638 2.263 0 .637-.637.637-1.637 0-2.262l-3.076-3.05"/><path d="M196.3 57.9c1.3 0 2.2-.9 2.2-2 0-1-.8-2-2.2-2s-2.2.8-2.2 2c0 1.1.9 2 2.2 2zM198.2 70.5V59.4h-3.8v11.2h3.8zM200.1 70.5h3.7v-6.2c0-.4 0-.6.1-.9.3-.6.9-1.3 1.9-1.3 1.3 0 1.9 1 1.9 2.5v6h3.7V64c0-3.4-1.9-5.1-4.2-5.1-2 0-2.9 1-3.4 1.9v-1.4H200c.2 1.1.1 11.1.1 11.1zM116.5 63.6c-.3-.3-.6-.4-1-.7-.3-.1-1.2-.3-1.3-.4 1.4-.8 2.2-1.5 2.2-3.6 0-2.5-2-3.6-4.4-3.6h-7.2v16.1h7c2.9 0 5.9-1.5 5.9-4.7-.2-1.5-.4-2.2-1.2-3.1zm-7.8-4v-1.1c1.5 0 3.6-.3 3.6 1.5 0 2.1-1.8 1.8-3.6 1.8v-2.2zm0 9v-4.1c2.1 0 4.6-.4 4.6 2.1 0 2.3-2.6 2-4.6 2z"/></svg>